<svg width="13" height="16" viewBox="0 0 13 16" fill="none" xmlns="http://www.w3.org/2000/svg">
<path d="M3.22734 8V6.4H9.62734V8H3.22734ZM3.22734 4.8V3.2H9.62734V4.8H3.22734ZM1.62734 9.6H7.62734C8.01401 9.6 8.37401 9.68333 8.70734 9.85C9.04068 10.0167 9.32068 10.2533 9.54734 10.56L11.2273 12.76V1.6H1.62734V9.6ZM1.62734 14.4H10.4673L8.28734 11.54C8.20734 11.4333 8.11068 11.35 7.99734 11.29C7.88401 11.23 7.76068 11.2 7.62734 11.2H1.62734V14.4ZM11.2273 16H1.62734C1.18734 16 0.810677 15.8433 0.497344 15.53C0.18401 15.2167 0.0273438 14.84 0.0273438 14.4V1.6C0.0273438 1.16 0.18401 0.783333 0.497344 0.47C0.810677 0.156667 1.18734 0 1.62734 0H11.2273C11.6673 0 12.044 0.156667 12.3573 0.47C12.6707 0.783333 12.8273 1.16 12.8273 1.6V14.4C12.8273 14.84 12.6707 15.2167 12.3573 15.53C12.044 15.8433 11.6673 16 11.2273 16Z" fill="#848484"/>
</svg>
