<svg width="19" height="16" viewBox="0 0 19 16" fill="none" xmlns="http://www.w3.org/2000/svg">
<path d="M4.72151 2.82353V1.88235C4.72151 1.36471 4.90582 0.921569 5.27445 0.552941C5.64308 0.184314 6.08621 0 6.60386 0H12.2509C12.7686 0 13.2117 0.184314 13.5803 0.552941C13.949 0.921569 14.1333 1.36471 14.1333 1.88235V2.82353H14.7921C15.1686 2.82353 15.5097 2.92941 15.8156 3.14118C16.1215 3.35294 16.345 3.62353 16.4862 3.95294L18.698 9.03529C18.745 9.16078 18.7803 9.28627 18.8039 9.41177C18.8274 9.53726 18.8392 9.66275 18.8392 9.78824V14.1176C18.8392 14.6353 18.6548 15.0784 18.2862 15.4471C17.9176 15.8157 17.4744 16 16.9568 16H1.89798C1.38033 16 0.937194 15.8157 0.568566 15.4471C0.199939 15.0784 0.015625 14.6353 0.015625 14.1176V9.78824C0.015625 9.66275 0.0273897 9.53726 0.0509191 9.41177C0.0744485 9.28627 0.109743 9.16078 0.156801 9.03529L2.36857 3.95294C2.50974 3.62353 2.73327 3.35294 3.03915 3.14118C3.34504 2.92941 3.68621 2.82353 4.06268 2.82353H4.72151ZM6.60386 2.82353H12.2509V1.88235H6.60386V2.82353ZM4.72151 8.47059V7.52941H6.60386V8.47059H12.2509V7.52941H14.1333V8.47059H16.3921L14.7921 4.70588H4.06268L2.46268 8.47059H4.72151ZM4.72151 10.3529H1.89798V14.1176H16.9568V10.3529H14.1333V11.2941H12.2509V10.3529H6.60386V11.2941H4.72151V10.3529Z" fill="#848484"/>
</svg>
