<svg width="21" height="16" viewBox="0 0 21 16" fill="none" xmlns="http://www.w3.org/2000/svg">
<path d="M16.4277 9V7H20.4277V9H16.4277ZM17.6277 16L14.4277 13.6L15.6277 12L18.8277 14.4L17.6277 16ZM15.6277 4L14.4277 2.4L17.6277 0L18.8277 1.6L15.6277 4ZM3.42773 15V11H2.42773C1.87773 11 1.4069 10.8042 1.01523 10.4125C0.623568 10.0208 0.427734 9.55 0.427734 9V7C0.427734 6.45 0.623568 5.97917 1.01523 5.5875C1.4069 5.19583 1.87773 5 2.42773 5H6.42773L11.4277 2V14L6.42773 11H5.42773V15H3.42773ZM12.4277 11.35V4.65C12.8777 5.05 13.2402 5.5375 13.5152 6.1125C13.7902 6.6875 13.9277 7.31667 13.9277 8C13.9277 8.68333 13.7902 9.3125 13.5152 9.8875C13.2402 10.4625 12.8777 10.95 12.4277 11.35ZM2.42773 7V9H6.97773L9.42773 10.45V5.55L6.97773 7H2.42773Z" fill="#848484"/>
</svg>
